<svg width="562" height="390" viewBox="0 0 562 390" fill="none" xmlns="http://www.w3.org/2000/svg">
<path d="M18.704 373.642C-1.79602 379.142 -0.296024 362.142 6.70398 340.142C12.304 322.542 13.3706 275.142 13.204 253.642C11.0373 217.642 13.204 142.707 13.204 126.642C13.204 64.1483 8.70402 56.1484 6.70398 35.1484C4.70394 14.1484 24.3077 6.47499 39.141 7.64166C55.641 12.1417 80.141 13.8315 106.704 7.64166C123.692 3.6831 179.204 2.14168 192.704 7.64166C206.204 13.1416 276.641 13.8315 305.704 7.64166C335.062 1.38891 451.704 3.64168 498.704 2.14168C529.883 1.1466 545.659 5.43248 550.704 13.8315M18.704 373.642C39.204 368.142 100.704 360.642 112.704 367.142C122.304 372.342 182.371 369.308 211.204 367.142C242.704 370.642 309.404 375.542 324.204 367.142C339.004 358.742 363.037 363.642 373.204 367.142C394.537 369.475 443.004 373.442 466.204 370.642C495.204 367.142 543.204 374.642 544.704 346.642C546.204 318.642 547.33 134.248 547.704 126.642C550.704 65.6483 543.704 48.1417 550.704 29.6417C553.06 23.4143 553.264 18.0934 550.704 13.8315M18.704 373.642C13.204 391.142 128.204 382.142 130.204 382.142C132.204 382.142 222.204 377.642 243.204 382.142C260.004 385.742 309.349 375.513 351.704 377.642C383.126 379.221 423.304 390.742 431.704 387.142C442.204 382.642 499.704 380.642 531.704 382.142C563.704 383.642 558.704 352.642 558.704 349.642C558.704 347.242 558.704 237.642 558.704 183.142C558.537 170.475 554.273 130.619 558.704 77.1483C562.641 29.6417 555.204 12.9349 550.704 13.8315" stroke="black" stroke-width="4"/>
</svg>
