<svg width="76" height="77" viewBox="0 0 76 77" fill="none" xmlns="http://www.w3.org/2000/svg">
<path d="M67.5556 0C69.7952 0 71.943 0.901386 73.5267 2.50586C75.1103 4.11034 76 6.28648 76 8.55556V68.4444C76 70.7135 75.1103 72.8897 73.5267 74.4941C71.943 76.0986 69.7952 77 67.5556 77H8.44444C6.20484 77 4.05696 76.0986 2.47332 74.4941C0.88968 72.8897 0 70.7135 0 68.4444V8.55556C0 6.28648 0.88968 4.11034 2.47332 2.50586C4.05696 0.901386 6.20484 0 8.44444 0H67.5556ZM65.4444 66.3056V43.6333C65.4444 39.9347 63.9943 36.3876 61.4129 33.7723C58.8316 31.157 55.3306 29.6878 51.68 29.6878C48.0911 29.6878 43.9111 31.9122 41.8844 35.2489V30.5006H30.1044V66.3056H41.8844V45.2161C41.8844 41.9222 44.5022 39.2272 47.7533 39.2272C49.3211 39.2272 50.8246 39.8582 51.9331 40.9813C53.0417 42.1045 53.6644 43.6278 53.6644 45.2161V66.3056H65.4444ZM16.3822 23.7844C18.2635 23.7844 20.0677 23.0273 21.398 21.6795C22.7282 20.3318 23.4756 18.5038 23.4756 16.5978C23.4756 12.6194 20.3089 9.36833 16.3822 9.36833C14.4898 9.36833 12.6748 10.13 11.3366 11.4858C9.99845 12.8416 9.24667 14.6804 9.24667 16.5978C9.24667 20.5761 12.4556 23.7844 16.3822 23.7844ZM22.2511 66.3056V30.5006H10.5556V66.3056H22.2511Z" fill="black"/>
</svg>
