<svg width="564" height="379" viewBox="0 0 564 379" fill="none" xmlns="http://www.w3.org/2000/svg">
<path d="M8.20491 28.1812C-0.795092 42.1812 17.2049 56.6812 17.2049 59.1812C-1.19507 85.9812 9.53826 101.015 17.2049 105.181C-3.59507 125.981 6.20492 152.515 13.7049 163.181C-7.49508 180.381 4.87158 203.348 13.7049 212.681C-7.49509 230.681 7.53824 258.848 17.7049 270.681C-9.49509 285.481 10.0382 314.181 23.2049 326.681C18.2049 332.181 9.30491 347.781 13.7049 366.181C19.2049 389.181 36.2049 364.681 46.7049 356.681C57.2049 348.681 56.2049 364.181 61.2049 373.681C66.2049 383.181 83.7049 364.681 91.2049 356.681C98.7049 348.681 100.705 368.681 112.205 373.681C123.705 378.681 117.205 362.181 135.205 356.681C153.205 351.181 151.705 373.681 162.705 373.681C173.705 373.681 179.205 361.681 191.705 356.681C204.205 351.681 203.705 373.681 214.705 373.681C225.705 373.681 220.705 361.181 232.705 356.681C244.705 352.181 250.705 376.681 258.705 373.681C266.705 370.681 271.205 368.681 279.205 359.181C287.205 349.681 303.705 373.681 309.705 373.681C315.705 373.681 319.205 364.681 327.205 359.181C335.205 353.681 348.705 373.681 355.205 373.681C361.705 373.681 369.205 359.181 374.205 353.181C379.205 347.181 386.705 369.181 394.205 373.681C401.705 378.181 407.205 361.681 418.205 353.181C429.205 344.681 434.205 371.181 449.205 373.681C461.205 375.681 462.255 359.281 473.205 359.181C484.322 359.08 482.905 371.681 497.705 373.681C512.505 375.681 505.616 355.165 512.705 359.181C549.999 380.307 560.499 359.181 546.499 337.307C539.453 326.298 568.705 310.581 558.705 298.181C548.705 285.781 549.205 275.848 550.705 273.681C574.205 243.181 542.705 240.181 550.705 233.181C558.705 226.181 560.449 213.018 558.705 199.681C557.289 188.849 542.705 183.181 547.205 174.181C551.705 165.181 563.399 157.38 560.705 145.181C558.61 135.695 548.205 135.532 544.499 126.307C539.795 114.597 553.205 103.681 547.205 95.1812C541.205 86.6812 540.205 80.6812 547.205 66.6812C554.205 52.6812 550.976 45.8071 544.976 39.3071C540.176 34.1071 557.999 11.3071 544.976 3.80716C531.725 -3.82426 516.26 27.8572 508.499 14.6811C496.794 -5.19277 485.005 3.88116 476.205 14.6812C467.405 25.4812 457.619 26.7248 452.999 20.3073C424.294 -19.5667 415.205 22.1812 407.705 25.6812C400.205 29.1812 392.705 8.68117 377.705 8.68117C362.705 8.68117 364.705 38.6812 353.205 22.1812C341.705 5.68116 319.705 16.6812 309.205 25.6812C298.705 34.6812 294.705 11.1812 279.705 8.68117C264.705 6.18116 260.205 34.6811 254.705 16.6812C250.305 2.28117 237.705 -1.81885 230.705 5.68116C225.127 11.6578 217.705 28.6812 211.205 19.1812C202.515 6.4811 192.617 6.94713 179.205 8.68117C169.588 9.92446 165.605 31.9812 159.205 19.1812C152.805 6.38116 145.205 7.18115 136.705 8.68117C127.158 10.366 130.405 28.2812 113.205 16.6812C91.7049 2.18117 86.2049 21.6812 80.2049 25.6812C74.2049 29.6812 69.4565 10.15 59.7049 11.1812C51.1743 12.0832 51.2049 30.6812 43.2049 25.6812C35.2049 20.6812 17.2049 14.1812 8.20491 28.1812Z" stroke="black" stroke-width="4"/>
</svg>
