<svg width="589" height="247" viewBox="0 0 589 247" fill="none" xmlns="http://www.w3.org/2000/svg">
<rect x="24.1401" y="8.14062" width="541" height="227" fill="white"/>
<g filter="url(#filter0_d_31_42)">
<path d="M23.4436 3.14062C23.4436 28.3603 23.9872 38.4955 23.9872 65.3164M23.9872 65.3164C23.9872 92.1373 23.9032 141.021 23.4436 173.876C22.984 206.731 22.6275 238.711 22.6275 238.711C22.6275 243.352 21.6223 237.875 21.6956 235.406C21.7872 232.32 22.6667 144.504 22.6667 136.838C22.6667 129.172 23.4436 90.1475 23.9872 65.3164Z" stroke="black" stroke-width="6.28125" stroke-miterlimit="10" stroke-linecap="round" stroke-linejoin="round"/>
<path d="M475.884 235.094C564.021 235.094 551.711 235.094 580.669 235.094C580.171 235.215 575.681 235.677 573.828 235.77C571.512 235.887 510.748 235.823 497.78 235.823C453.387 235.823 252.846 235.387 239.721 235.387M475.884 235.094C475.884 235.094 263.309 235.823 229.406 235.823C195.502 235.823 203.521 235.843 131.947 235.823C78.4359 235.809 14.4494 235.823 10.1436 235.823C5.83773 235.823 7.42654 234.948 7.42654 234.948C37.5242 235.387 89.9053 235.387 158.7 235.387C182.406 235.387 210.134 235.387 239.721 235.387M475.884 235.094C411.453 235.094 320.137 235.387 239.721 235.387" stroke="black" stroke-width="6.28125" stroke-miterlimit="10" stroke-linecap="round" stroke-linejoin="round"/>
<path d="M567.656 122.789C567.656 152.138 568.866 170.604 568.866 189.794C568.866 208.984 568.248 241.493 568.248 241.493C568.248 241.493 566.825 242.863 566.825 240.186C566.825 237.509 567.755 218.478 567.656 191.127C567.556 163.776 567.56 135.115 567.656 122.789ZM567.656 122.789C567.655 108.954 567.009 80.6929 567.048 64.9665C567.09 47.332 567.047 21.9368 567.048 4.90881" stroke="black" stroke-width="6.28125" stroke-miterlimit="10" stroke-linecap="round" stroke-linejoin="round"/>
<path d="M16.9763 9.26833C47.8916 9.26833 74.8645 9.26833 90.768 9.26833M90.768 9.26833C106.672 9.26833 177.283 9.3972 207.181 9.3972M90.768 9.26833C90.768 9.26833 125.256 8.86717 145.476 8.86717C165.696 8.86717 207.181 9.3972 207.181 9.3972M585.14 9.3972C553.498 9.3972 568.128 9.26833 536.7 9.26833C518.785 9.26833 496.87 9.48311 465.453 9.3972M291.339 8.86717C313.082 8.87958 426.727 9.29131 465.453 9.3972M291.339 8.86717C268.853 8.85433 237.08 9.3972 207.181 9.3972M291.339 8.86717C291.339 8.86717 345.859 8.86717 376.393 8.86717M465.453 9.3972C465.453 9.3972 406.928 8.86717 376.393 8.86717M207.181 9.3972C225.507 9.3972 267.995 9.3972 291.339 9.3972C314.684 9.3972 357.769 9.04384 376.393 8.86717" stroke="black" stroke-width="6.28125" stroke-miterlimit="10" stroke-linecap="round" stroke-linejoin="round"/>
</g>
<defs>
<filter id="filter0_d_31_42" x="0" y="0" width="588.281" height="246.984" filterUnits="userSpaceOnUse" color-interpolation-filters="sRGB">
<feFlood flood-opacity="0" result="BackgroundImageFix"/>
<feColorMatrix in="SourceAlpha" type="matrix" values="0 0 0 0 0 0 0 0 0 0 0 0 0 0 0 0 0 0 127 0" result="hardAlpha"/>
<feOffset dx="-4" dy="2"/>
<feComposite in2="hardAlpha" operator="out"/>
<feColorMatrix type="matrix" values="0 0 0 0 0 0 0 0 0 0 0 0 0 0 0 0 0 0 0.25 0"/>
<feBlend mode="normal" in2="BackgroundImageFix" result="effect1_dropShadow_31_42"/>
<feBlend mode="normal" in="SourceGraphic" in2="effect1_dropShadow_31_42" result="shape"/>
</filter>
</defs>
</svg>
