<svg width="184" height="184" viewBox="0 0 184 184" fill="none" xmlns="http://www.w3.org/2000/svg">
<g clip-path="url(#clip0_1_330)">
<g filter="url(#filter0_d_1_330)">
<path d="M104.061 85.7569C114.214 90.948 122.999 98.0697 128.428 107.133C133.849 116.183 135.945 127.202 132.678 140.251L132.678 140.252C132.593 140.594 132.245 140.803 131.901 140.718C131.603 140.642 131.405 140.366 131.418 140.068L131.436 139.94C134.617 127.24 132.545 116.475 127.198 107.628C121.859 98.7953 113.275 91.9075 103.476 86.8973C93.5872 81.8417 82.4269 78.6635 71.9754 77.3305C61.5313 75.9985 51.7519 76.5036 44.6375 78.8544C44.2943 78.9681 44.1029 78.8909 43.9911 78.8156C43.8543 78.7233 43.7766 78.5892 43.7568 78.5495L43.7567 78.5482C43.7231 78.4808 43.6743 78.3616 43.6757 78.2267C43.6768 78.1269 43.7043 77.9878 43.8505 77.8262L43.9208 77.7555C43.9193 77.757 43.9268 77.7508 43.9476 77.7351C43.9674 77.7202 43.9938 77.7001 44.0281 77.6765C44.0974 77.6288 44.19 77.5686 44.304 77.4964C44.5319 77.352 44.8357 77.1672 45.1959 76.9528C45.9162 76.524 46.8511 75.9834 47.8258 75.4235C49.2831 74.5863 50.8354 73.7037 51.8864 73.0968L52.7481 72.5931C53.4208 72.1925 54.3808 71.6923 55.5287 71.0963C56.6706 70.5034 57.9876 69.8216 59.3542 69.0654C61.9108 67.6507 64.6714 65.9609 66.8237 64.0775L67.2455 63.6985C68.4926 62.5485 69.5542 61.2946 70.064 59.9498C70.5867 58.5707 70.5184 57.1181 69.5517 55.6612L69.5524 55.6618C68.5772 54.1907 67.0847 53.3672 65.3095 52.9924C63.5442 52.6197 61.4713 52.6832 59.2693 52.9982C53.6262 53.8063 46.9238 56.4305 41.153 59.3211C35.3902 62.2078 30.4759 65.4007 28.43 67.3895L28.4294 67.3902C28.1751 67.6377 27.7705 67.6316 27.5249 67.3794C27.2781 67.1259 27.2833 66.7211 27.5378 66.4728C29.5531 64.5124 34.5558 61.2352 40.5342 58.2327C46.5048 55.2341 53.3691 52.5493 59.0875 51.7306C64.4266 50.9663 68.5979 51.9047 70.6191 54.9528C71.7427 56.6473 71.9194 58.2953 71.4396 59.8886C70.9825 61.4063 69.9183 62.9093 68.4192 64.3528L68.1132 64.6405C65.9392 66.6467 62.9909 68.4815 60.2085 70.0335C58.8205 70.8077 57.4816 71.5068 56.3086 72.1207C55.433 72.5789 54.6432 72.993 53.9988 73.3527L53.4047 73.6938C52.9414 73.9687 52.061 74.4843 51.0349 75.0776L51.3581 76.0055C66.04 73.8445 86.9387 77.0022 104.061 85.7569Z" fill="black" stroke="black"/>
<path d="M146.024 106.788C146.34 106.939 146.477 107.322 146.327 107.644L146.326 107.645C142.241 116.188 138.131 124.258 135.37 133.429L135.371 133.429C135.243 133.851 134.94 135.328 134.596 136.889C134.243 138.485 133.842 140.199 133.507 141.178L133.506 141.179C133.303 141.777 133.085 142.117 132.985 142.223C132.847 142.365 132.71 142.423 132.595 142.449L132.59 142.45C132.513 142.469 132.405 142.483 132.291 142.459C132.188 142.437 132.051 142.378 131.909 142.204L131.908 142.201C131.905 142.197 131.892 142.179 131.866 142.136C131.839 142.091 131.807 142.031 131.77 141.961C131.696 141.821 131.61 141.649 131.527 141.475C131.371 141.15 131.199 140.774 131.166 140.707C129.841 137.974 128.655 135.083 127.124 132.381L127.123 132.38C123.728 126.389 118.934 120.851 113.075 117.12C112.815 116.954 112.715 116.631 112.822 116.351L112.88 116.235C113.07 115.939 113.466 115.849 113.766 116.039C119.769 119.867 124.725 125.551 128.239 131.749C129.558 134.074 130.603 136.503 131.754 138.958L132.357 140.244L132.692 138.864C133.233 136.644 133.984 133.588 134.145 133.06L134.146 133.058C136.912 123.868 141.019 115.774 145.171 107.09C145.325 106.771 145.707 106.636 146.024 106.788Z" fill="black" stroke="black"/>
</g>
</g>
<defs>
<filter id="filter0_d_1_330" x="25.8433" y="50.9785" width="121.045" height="95.993" filterUnits="userSpaceOnUse" color-interpolation-filters="sRGB">
<feFlood flood-opacity="0" result="BackgroundImageFix"/>
<feColorMatrix in="SourceAlpha" type="matrix" values="0 0 0 0 0 0 0 0 0 0 0 0 0 0 0 0 0 0 127 0" result="hardAlpha"/>
<feOffset dx="-1" dy="4"/>
<feComposite in2="hardAlpha" operator="out"/>
<feColorMatrix type="matrix" values="0 0 0 0 0 0 0 0 0 0 0 0 0 0 0 0 0 0 1 0"/>
<feBlend mode="normal" in2="BackgroundImageFix" result="effect1_dropShadow_1_330"/>
<feBlend mode="normal" in="SourceGraphic" in2="effect1_dropShadow_1_330" result="shape"/>
</filter>
<clipPath id="clip0_1_330">
<rect width="130" height="130" fill="white" transform="translate(88.037) rotate(42.6258)"/>
</clipPath>
</defs>
</svg>
